<?xml version="1.0" encoding="UTF-8" standalone="no"?>
<svg
   xmlns:dc="http://purl.org/dc/elements/1.1/"
   xmlns:cc="http://creativecommons.org/ns#"
   xmlns:rdf="http://www.w3.org/1999/02/22-rdf-syntax-ns#"
   xmlns:svg="http://www.w3.org/2000/svg"
   xmlns="http://www.w3.org/2000/svg"
   xmlns:sodipodi="http://sodipodi.sourceforge.net/DTD/sodipodi-0.dtd"
   xmlns:inkscape="http://www.inkscape.org/namespaces/inkscape"
   width="1e3"
   height="1e3"
   version="1.1"
   viewBox="0 0 264.58 264.58"
   id="svg839"
   sodipodi:docname="ephcoding-grey.svg"
   inkscape:version="1.0.1 (c497b03c, 2020-09-10)"
   inkscape:export-filename="/Users/eph/_ephcoding/assets/brand/ephcoding-grey.png"
   inkscape:export-xdpi="96"
   inkscape:export-ydpi="96">
  <metadata
     id="metadata845">
    <rdf:RDF>
      <cc:Work
         rdf:about="">
        <dc:format>image/svg+xml</dc:format>
        <dc:type
           rdf:resource="http://purl.org/dc/dcmitype/StillImage" />
        <dc:title></dc:title>
      </cc:Work>
    </rdf:RDF>
  </metadata>
  <defs
     id="defs843" />
  <sodipodi:namedview
     pagecolor="#000000"
     bordercolor="#666666"
     borderopacity="1"
     objecttolerance="10"
     gridtolerance="10"
     guidetolerance="10"
     inkscape:pageopacity="0"
     inkscape:pageshadow="2"
     inkscape:window-width="640"
     inkscape:window-height="480"
     id="namedview841"
     showgrid="false"
     inkscape:pagecheckerboard="true"
     inkscape:zoom="0.46383606"
     inkscape:cx="508.5913"
     inkscape:cy="490.26071"
     inkscape:current-layer="svg839"
     inkscape:document-rotation="0" />
  <text
     transform="matrix(.99287 -.11913 -.4541 1.0617 0 0)"
     x="-24.867401"
     y="-148.74954"
     fill="#f68712"
     font-family="'Archivo Black'"
     font-size="50.799px"
     stroke-width="3.0932"
     style="font-variant-caps:normal;font-variant-east-asian:normal;font-variant-ligatures:normal;font-variant-numeric:normal;line-height:1.25;shape-inside:url(#rect1508);white-space:pre;"
     xml:space="preserve"
     id="text833" />
  <g
     id="g885"
     transform="translate(-0.00215321,-0.01435909)">
    <path
       d="m 100.48286,146.76131 c 50.04679,0.78886 94.48555,-16.65867 127.74649,-42.65921 -37.85604,4.26567 -73.78612,7.97612 -111.725,11.39143 -3.06508,3.21558 -6.68101,9.24451 -9.77581,15.41396 -3.0948,6.16931 -5.26512,12.07595 -6.24568,15.85382 z"
       fill="#fff"
       stroke="#fff"
       stroke-width="3.11486"
       style="font-variant-ligatures:normal;font-variant-caps:normal;font-variant-numeric:normal;font-variant-east-asian:normal;white-space:pre;fill:#666666;fill-opacity:1;stroke:#666666;stroke-width:0;stroke-miterlimit:4;stroke-dasharray:none;stroke-opacity:1"
       id="path835"
       sodipodi:nodetypes="cccsc" />
    <path
       d="m 154.63,83.852 c 14.422,0.56859 19.982,8.0658 16.169,20.254 l 59.175,-5.448 c 1.3823,-4.9651 2.3198,-9.5992 2.7963,-13.891 0.59469,-5.3581 0.48278,-10.192 -0.33505,-14.499 -0.81781,-4.3076 -2.3412,-8.0904 -4.5715,-11.348 -7.0842,-10.601 -20.965,-15.986 -41.643,-16.155 v 5e-6 c -4.772,-0.03895 -9.9062,0.19963 -15.402,0.71618 -28.098,2.6412 -53.553,12.172 -76.361,28.591 -119.32,80.484005 -54.41,203.460005 71.596,124.200005 20.033,-12.896 34.739,-29.573 44.119,-50.033 -78.152,24.033 -143.62,57.72 -108.36,-18.126 9.3715,-21.88 29.339,-44.110005 52.811,-44.257005 z"
       fill="#eb222f"
       stroke-width="0"
       style="font-variant-ligatures:normal;font-variant-caps:normal;font-variant-numeric:normal;font-variant-east-asian:normal;white-space:pre;fill:#666666;fill-opacity:1"
       id="path837" />
  </g>
</svg>
